<?xml version="1.0" standalone="no"?>
<!DOCTYPE svg PUBLIC "-//W3C//DTD SVG 20010904//EN"
 "http://www.w3.org/TR/2001/REC-SVG-20010904/DTD/svg10.dtd">
<svg version="1.0" xmlns="http://www.w3.org/2000/svg"
 width="500.000000pt" height="500.000000pt" viewBox="0 0 500.000000 500.000000"
 preserveAspectRatio="xMidYMid meet">
<metadata>
Created by potrace 1.11, written by Peter Selinger 2001-2013
</metadata>
<g transform="translate(0.000000,500.000000) scale(0.100000,-0.100000)"
fill="#000000" stroke="none">
<path d="M2345 4398 c-143 -14 -179 -19 -273 -39 -685 -147 -1254 -662 -1473
-1334 -68 -208 -93 -368 -93 -600 -1 -193 6 -261 39 -428 148 -729 717 -1332
1438 -1522 51 -13 108 -27 127 -30 19 -3 42 -8 50 -10 42 -12 114 -17 305 -20
247 -4 313 2 515 51 576 141 1052 529 1319 1074 56 115 132 323 144 395 3 17
10 53 16 80 34 153 47 459 26 620 -60 470 -256 871 -581 1191 -378 372 -854
570 -1388 578 -56 1 -132 -2 -171 -6z m335 -122 c60 -6 155 -21 270 -45 108
-22 323 -105 428 -165 35 -20 65 -36 67 -36 8 0 135 -87 207 -142 162 -123
370 -357 466 -526 51 -90 117 -231 147 -313 35 -98 82 -280 90 -354 4 -33 9
-69 12 -80 9 -39 10 -321 1 -400 -23 -218 -91 -450 -187 -642 -283 -562 -802
-937 -1426 -1028 -99 -14 -428 -14 -520 0 -410 63 -786 253 -1067 539 -287
292 -464 645 -528 1056 -22 144 -20 417 5 575 24 149 102 389 171 528 176 350
488 665 822 832 184 91 376 157 522 179 19 3 46 8 60 11 14 2 65 7 115 11 49
3 91 7 93 8 4 4 179 -1 252 -8z"/>
<path d="M2601 3383 c-21 -41 -271 -672 -271 -686 0 -25 29 -28 44 -4 8 12 74
169 146 350 109 269 130 330 120 342 -16 20 -27 19 -39 -2z"/>
<path d="M2145 3145 c-58 -58 -105 -107 -105 -109 0 -11 205 -206 217 -206 7
0 16 7 20 16 4 11 -21 43 -81 103 l-86 86 85 85 c84 83 100 112 70 124 -11 4
-49 -28 -120 -99z"/>
<path d="M2673 3239 c-18 -18 -5 -38 80 -122 91 -90 94 -68 -26 -187 -47 -47
-65 -72 -61 -84 12 -32 41 -14 142 87 l102 103 -108 107 c-60 59 -111 107
-114 107 -2 0 -9 -5 -15 -11z"/>
<path d="M1644 2221 l-36 -76 -29 64 c-16 35 -29 68 -29 72 0 5 -18 9 -40 9
l-40 0 0 -125 0 -125 30 0 29 0 3 78 3 77 24 -62 c13 -35 27 -64 32 -64 5 -1
15 -2 22 -3 6 -1 26 27 44 63 l32 66 0 -77 1 -78 30 0 30 0 -1 124 0 124 -35
4 c-35 4 -35 4 -70 -71z"/>
<path d="M2103 2283 c-10 -26 6 -43 40 -43 l35 0 0 -87 c0 -49 1 -94 1 -100 1
-8 14 -13 31 -13 22 0 30 5 31 18 0 9 1 53 2 97 l2 80 38 3 c32 3 37 7 37 28
0 13 -3 24 -7 24 -121 6 -206 3 -210 -7z"/>
<path d="M2350 2268 c0 -26 3 -28 38 -28 l38 0 -1 -97 0 -98 33 -3 32 -3 0
100 0 100 37 3 c29 2 37 8 39 26 2 12 -1 22 -6 23 -6 0 -55 1 -110 2 l-100 2
0 -27z"/>
<path d="M2793 2291 c-5 -3 -8 -27 -7 -53 l1 -48 -54 0 -55 0 3 48 c3 46 3 47
-29 50 -25 3 -32 -1 -33 -15 -1 -21 -1 -214 0 -225 1 -5 15 -8 31 -8 32 0 34
4 30 67 l-1 32 53 -2 53 -2 1 -45 c0 -43 2 -45 32 -48 l32 -3 0 124 c0 124 0
125 -24 129 -14 3 -29 2 -33 -1z"/>
<path d="M2928 2280 c-2 -8 -4 -64 -3 -125 l0 -110 100 -3 101 -3 2 26 c2 25
1 25 -68 25 -68 0 -70 1 -70 25 0 24 3 25 60 25 57 0 60 1 60 25 0 24 -3 25
-60 25 -57 0 -60 1 -60 25 0 23 3 24 68 27 61 3 67 5 64 23 -2 11 -5 21 -6 22
-1 1 -43 3 -93 5 -75 2 -93 0 -95 -12z"/>
<path d="M3175 2290 c-3 -4 13 -61 34 -126 l38 -119 35 -3 35 -3 18 68 c24 91
31 102 39 67 4 -16 14 -53 22 -81 14 -50 16 -53 48 -53 l34 0 36 113 c21 61
40 118 43 125 3 8 -6 12 -30 12 l-34 0 -23 -87 c-25 -97 -26 -96 -56 20 -17
65 -18 67 -49 67 -32 0 -32 -1 -55 -87 -26 -95 -27 -94 -55 19 -16 61 -20 66
-47 70 -16 3 -31 1 -33 -2z"/>
<path d="M1851 2170 c-28 -66 -51 -122 -51 -125 0 -3 13 -5 29 -5 19 0 34 8
44 23 13 20 24 24 65 23 43 0 52 -3 61 -23 8 -17 19 -23 41 -23 16 0 30 4 30
9 0 10 -21 61 -56 138 -13 29 -26 64 -30 78 -5 21 -12 25 -44 25 l-37 0 -52
-120z m105 -32 c-16 -9 -52 -3 -48 8 1 5 7 25 14 44 l11 35 18 -40 c14 -31 15
-41 5 -47z"/>
<path d="M1353 1882 c-22 -3 -23 -7 -23 -128 l0 -125 33 3 c27 3 32 7 32 29 0
24 20 59 34 59 3 0 19 -20 34 -45 26 -41 32 -45 68 -45 l39 0 -17 28 c-10 15
-32 47 -50 72 l-31 45 45 52 c46 54 45 59 -11 53 -20 -2 -23 -4 -73 -63 -18
-21 -33 -36 -34 -35 -1 2 -2 22 -4 46 -2 49 -11 60 -42 54z"/>
<path d="M1712 1881 c-9 -6 -92 -184 -107 -230 -5 -18 -2 -21 23 -21 20 0 35
8 45 23 13 20 24 24 65 23 43 0 52 -3 61 -23 8 -17 19 -23 45 -23 l34 0 -52
122 c-43 103 -56 123 -78 129 -14 4 -30 4 -36 0z m54 -149 c-2 -1 -12 -4 -23
-6 -35 -7 -42 6 -25 49 l16 39 17 -39 c10 -22 16 -41 15 -43z"/>
<path d="M1923 1880 c-10 -3 -18 -14 -18 -25 0 -16 8 -21 38 -23 l37 -3 0
-100 0 -99 29 0 c16 0 31 6 33 13 3 6 4 51 3 100 l-1 87 38 0 c34 0 38 3 38
25 0 14 -3 25 -7 26 -36 4 -176 3 -190 -1z"/>
<path d="M2214 1872 c-36 -19 -44 -30 -44 -64 0 -31 39 -66 82 -75 31 -6 53
-27 43 -43 -9 -15 -42 -12 -82 7 -30 14 -36 14 -44 2 -16 -26 -9 -40 28 -56
52 -21 131 -13 155 17 39 48 18 91 -57 119 -64 24 -77 57 -19 48 22 -3 46 -8
55 -11 10 -5 19 1 27 19 11 23 9 26 -14 35 -45 17 -99 18 -130 2z"/>
<path d="M2435 1882 c-3 -3 -5 -61 -5 -129 l0 -124 32 3 32 3 1 122 0 121 -27
4 c-16 3 -30 2 -33 0z"/>
<path d="M2568 1882 c-10 -2 -18 -6 -18 -10 0 -3 21 -59 46 -124 l47 -119 34
3 c34 3 35 4 82 125 41 103 46 122 32 126 -36 9 -52 -9 -77 -83 -14 -41 -29
-79 -34 -84 -4 -4 -21 30 -36 77 -27 85 -38 97 -76 89z"/>
<path d="M2867 1878 c-8 -5 -14 -155 -8 -235 1 -10 28 -13 101 -13 100 0 100
0 100 25 0 23 -3 24 -67 27 -62 3 -68 5 -71 26 -3 21 0 22 56 22 66 0 72 3 65
30 -4 15 -16 20 -62 22 -49 3 -56 6 -59 25 -3 21 1 22 64 25 56 3 68 6 70 21
1 10 -4 21 -12 24 -21 8 -164 9 -177 1z"/>
<path d="M3140 1881 c-13 -5 -15 -28 -15 -126 l0 -120 88 -3 c81 -3 87 -1 87
17 0 26 -26 38 -72 35 l-38 -2 0 98 c0 85 -2 98 -18 102 -9 3 -24 2 -32 -1z"/>
<path d="M3368 1882 c-16 -3 -18 -17 -18 -128 l0 -124 34 0 34 0 -1 124 c0
132 -3 138 -49 128z"/>
<path d="M3560 1882 c-36 -5 -70 -41 -70 -73 0 -32 39 -67 82 -76 31 -6 53
-27 43 -43 -9 -15 -42 -12 -82 7 -30 14 -36 14 -44 2 -16 -26 -9 -40 26 -55
56 -23 121 -18 150 11 28 27 33 76 11 95 -8 6 -36 20 -63 30 -28 10 -49 25
-52 35 -3 15 3 17 35 12 22 -3 46 -8 55 -11 10 -5 19 1 27 19 11 23 9 26 -12
34 -31 12 -76 18 -106 13z"/>
<path d="M1884 1359 c-3 -5 4 -9 15 -9 17 0 21 -6 21 -36 0 -31 -3 -36 -20
-31 -23 6 -27 -11 -5 -19 27 -11 46 16 43 60 -3 35 -7 41 -26 42 -12 1 -25 -3
-28 -7z"/>
<path d="M1970 1335 c0 -20 5 -45 10 -56 12 -22 52 -25 69 -5 14 17 21 71 10
88 -10 15 -11 14 -13 -35 -4 -68 -56 -73 -56 -7 0 22 -4 42 -10 45 -6 4 -10
-8 -10 -30z"/>
<path d="M2107 1363 c-11 -11 -8 -103 4 -103 5 0 9 8 8 18 -5 52 1 57 26 19
14 -20 30 -37 35 -37 6 0 10 26 10 57 0 58 -15 65 -22 9 l-3 -29 -26 37 c-14
20 -29 33 -32 29z"/>
<path d="M2303 1357 c-31 -13 -38 -43 -19 -72 29 -44 96 -24 96 29 0 38 -40
60 -77 43z m51 -23 c15 -15 14 -24 -6 -51 -7 -9 -16 -9 -34 -1 -26 12 -31 37
-12 56 16 16 34 15 52 -4z"/>
<path d="M2419 1366 c-7 -4 -4 -106 3 -106 4 0 8 7 8 15 0 8 6 15 14 15 7 0
19 -7 26 -15 7 -8 17 -15 22 -15 6 0 5 7 -2 15 -10 12 -10 18 0 30 13 16 5 55
-13 56 -7 0 -22 2 -34 3 -13 2 -24 2 -24 2z m59 -38 c3 -13 -3 -18 -22 -18
-20 0 -26 5 -26 21 0 15 5 20 22 17 13 -2 24 -11 26 -20z"/>
<path d="M2580 1313 c0 -29 5 -53 10 -53 6 0 10 9 10 20 0 11 5 21 10 21 6 1
14 2 19 3 23 3 21 16 -2 16 -17 0 -27 5 -27 15 0 9 9 15 25 15 14 0 25 4 25 9
0 4 -16 8 -35 7 l-35 -1 0 -52z"/>
<path d="M2684 1362 c-11 -8 -13 -102 -2 -102 5 0 8 7 8 15 0 8 9 15 19 15 10
0 21 -7 25 -15 3 -8 10 -15 16 -15 7 0 8 6 0 19 -7 13 -7 22 0 26 12 7 13 42
2 49 -15 9 -59 14 -68 8z m55 -25 c14 -17 4 -27 -25 -27 -17 0 -22 5 -21 20 1
23 29 27 46 7z"/>
<path d="M2835 1362 c-30 -6 -45 -22 -45 -47 0 -46 62 -72 92 -37 13 15 14 24
10 57 -3 16 -35 31 -57 27z m30 -26 c16 -12 18 -18 7 -40 -9 -21 -15 -24 -34
-17 -26 9 -37 49 -16 62 18 12 21 11 43 -5z"/>
<path d="M2930 1365 c-6 -55 -3 -105 6 -105 6 0 10 15 8 37 l-2 38 30 -38 c16
-20 34 -37 39 -37 10 0 8 100 -3 106 -4 3 -8 -12 -8 -33 l0 -38 -35 40 c-19
22 -35 36 -35 30z"/>
<path d="M3047 1358 c-8 -5 -5 -8 9 -8 19 0 22 -5 20 -45 -1 -28 2 -44 9 -42
5 2 11 17 11 33 2 50 4 54 21 54 9 0 13 3 9 7 -10 10 -64 11 -79 1z"/>
<path d="M2225 1318 c1 -58 20 -60 20 -3 0 25 -4 45 -10 45 -6 0 -10 -19 -10
-42z"/>
<path d="M1815 1183 c-6 -2 -10 -24 -9 -51 1 -47 2 -47 39 -50 24 -2 35 0 30
7 -3 6 -17 11 -31 11 -27 0 -34 19 -6 21 9 1 20 1 25 0 4 0 7 3 7 8 0 5 -9 11
-20 13 -31 5 -28 22 6 29 19 4 24 8 14 12 -16 6 -38 6 -55 0z"/>
<path d="M1919 1180 c-5 -80 -4 -100 7 -100 7 0 11 12 9 30 -3 38 8 38 35 0
12 -17 25 -28 29 -26 12 8 13 94 1 101 -6 4 -10 -9 -10 -32 l-1 -38 -34 40
c-21 24 -35 34 -36 25z"/>
<path d="M2046 1181 c-2 -3 -4 -27 -3 -53 0 -47 1 -48 32 -48 80 0 86 98 7
105 -18 1 -34 0 -36 -4z m62 -23 c19 -19 14 -48 -10 -57 -31 -12 -38 -6 -38
35 0 26 4 34 18 34 10 0 23 -5 30 -12z"/>
<path d="M2219 1162 c-2 -15 -3 -40 -1 -55 3 -26 6 -28 40 -25 40 3 64 34 55
69 -5 19 -17 25 -64 33 -23 4 -27 0 -30 -22z m65 -8 c18 -17 19 -24 8 -40 -20
-29 -61 -19 -56 14 1 6 2 19 3 27 1 20 25 19 45 -1z"/>
<path d="M2352 1180 c-4 -3 -7 -25 -7 -50 l1 -45 43 -3 c26 -2 41 1 37 6 -3 6
-17 9 -31 7 -14 -1 -28 2 -32 7 -7 13 16 28 34 21 7 -3 13 0 13 5 0 6 -9 12
-20 14 -31 5 -28 22 6 29 16 4 27 8 24 9 -11 5 -61 6 -68 0z"/>
<path d="M2448 1185 c-9 -9 33 -106 45 -102 12 4 50 97 43 105 -3 3 -14 -15
-25 -39 l-19 -44 -19 43 c-10 24 -21 40 -25 37z"/>
<path d="M2572 1180 c-4 -3 -7 -25 -7 -50 l1 -45 44 -3 c25 -2 41 0 37 5 -9 8
-14 10 -47 12 -25 1 -27 28 -2 28 37 0 46 6 17 12 -38 8 -38 24 1 32 16 4 27
8 24 9 -11 5 -61 6 -68 0z"/>
<path d="M2679 1180 c-3 -8 -5 -33 -4 -55 2 -38 4 -40 36 -43 28 -3 36 10 8
14 -5 1 -14 2 -20 3 -5 0 -8 4 -6 9 3 4 2 25 -2 47 -4 23 -9 34 -12 25z"/>
<path d="M2789 1176 c-48 -23 -28 -96 25 -96 13 0 31 9 41 20 38 42 -14 102
-66 76z m49 -18 c18 -18 14 -46 -8 -58 -16 -8 -24 -6 -41 11 -20 20 -20 22 -3
40 20 22 35 24 52 7z"/>
<path d="M2905 1182 c-12 -8 -14 -102 -3 -102 4 0 8 4 8 10 0 5 16 16 35 24
35 15 48 47 25 61 -17 11 -54 15 -65 7z m53 -29 c-2 -10 -13 -19 -26 -21 -17
-3 -22 2 -22 17 0 16 6 21 26 21 19 0 25 -5 22 -17z"/>
<path d="M3009 1163 c-1 -13 -1 -32 -1 -43 0 -11 0 -24 1 -30 1 -13 71 -13 71
0 0 5 -11 8 -25 7 -13 -1 -24 1 -25 6 -1 23 1 28 9 23 5 -4 17 -3 28 1 15 6
13 8 -11 13 -38 6 -40 24 -3 28 39 5 33 18 -8 18 -29 0 -35 -4 -36 -23z"/>
<path d="M3119 1176 c-7 -50 -2 -96 8 -96 7 0 10 7 7 15 -4 10 0 15 14 15 11
0 22 -7 26 -15 3 -8 10 -15 16 -15 7 0 8 6 0 19 -7 13 -7 22 0 26 13 8 13 42
1 50 -19 11 -71 12 -72 1z m59 -29 c3 -12 -3 -17 -22 -17 -25 0 -35 18 -19 34
12 12 38 2 41 -17z"/>
</g>
</svg>
